<svg width="192" height="53" viewBox="0 0 192 53" xmlns="http://www.w3.org/2000/svg" xmlns:xlink="http://www.w3.org/1999/xlink"><title>FortiFi Logo Positive</title><defs><path id="a" d="M0 52.384h191.73V.512H0z"/></defs><g fill="none" fill-rule="evenodd"><path fill="#00968A" d="M172.307 20.068l6.475 6.485-6.475 6.484 6.475 6.483 12.949-12.967-12.95-12.969z"/><path fill="#027162" d="M159.357 46.004l6.475 6.485 12.95-12.969-6.475-6.483z"/><path fill="#A7CE43" d="M165.832.616l-6.475 6.485 12.95 12.967 6.475-6.484z"/><path fill="#00BCD9" d="M178.781 26.553l-6.474 6.484-6.475-6.484 6.475-6.484z"/><path fill="#CCE8DE" d="M172.307 33.037l-12.95 12.967-6.474-6.484 12.95-12.967zM159.357 7.1l-6.474 6.484 12.949 12.969 6.475-6.485z"/><path fill="#003039" d="M0 8.366V43.88h6.616V29.282h14.052v-5.643H6.616v-9.63h18.869V8.367z"/><g transform="translate(0 .105)"><path d="M43.459 37.174c1.103-1.432 1.654-3.65 1.654-6.652v-.725c0-3.003-.551-5.22-1.654-6.652-1.103-1.432-2.878-2.148-5.324-2.148-2.482 0-4.266.716-5.35 2.148-1.086 1.433-1.63 3.65-1.63 6.652v.725c0 3.002.544 5.22 1.63 6.652 1.084 1.433 2.868 2.148 5.35 2.148 2.446 0 4.22-.715 5.324-2.148m-15.38 3.753c-2.222-2.312-3.333-5.902-3.333-10.768 0-4.866 1.111-8.454 3.334-10.767 2.223-2.311 5.574-3.469 10.055-3.469 4.478 0 7.831 1.158 10.054 3.469 2.223 2.313 3.334 5.901 3.334 10.767s-1.111 8.456-3.334 10.768c-2.223 2.313-5.576 3.468-10.054 3.468-4.481 0-7.832-1.155-10.055-3.468m27.69-24.383h5.117l.57 4.298h.362c1.24-3.279 3.273-4.919 6.1-4.919.62 0 1.17.06 1.653.182.482.12.793.215.93.284v5.85H68.54c-4.378 0-6.565 2.451-6.565 7.35v14.186H55.77v-27.23zm21.71 25.911c-1.018-1.295-1.525-2.908-1.525-4.84V22.261H73.4v-5.718h2.657l1.137-7.61h4.963v7.61h4.652v5.718h-4.652v14.73c0 1.554.74 2.33 2.223 2.33h2.43v4.246c-.552.207-1.241.396-2.069.57-.827.172-1.585.257-2.274.257-2.309 0-3.972-.646-4.988-1.94" fill="#003039"/><path fill="#027162" d="M105.775 8.261h25.485v5.643h-18.87v9.63h14.052v5.642H112.39v14.599h-6.616z"/><mask id="b" fill="#fff"><use xlink:href="#a"/></mask><path fill="#003039" mask="url(#b)" d="M92.361 43.775h6.203v-27.23h-6.203zm0-29.758h6.203V8.26h-6.203z"/><path fill="#027162" mask="url(#b)" d="M135.747 14.017h6.204V8.26h-6.204zm0 29.758h6.204v-27.23h-6.204z"/></g></g></svg>